<?xml version="1.0" encoding="UTF-8"?>
<svg width="512" height="512" viewBox="0 0 512 512" fill="none" xmlns="http://www.w3.org/2000/svg">
  <!-- Background gradient -->
  <rect width="512" height="512" rx="100" fill="url(#paint0_linear)"/>
  
  <!-- Network icon -->
  <g transform="translate(96, 96) scale(1.25)">
    <!-- MQTT Logo stylized -->
    <path d="M84 36C84 16.1177 100.118 0 120 0H136C155.882 0 172 16.1177 172 36V220C172 239.882 155.882 256 136 256H120C100.118 256 84 239.882 84 220V36Z" fill="#9333EA"/>
    <path d="M36 84C16.1177 84 0 100.118 0 120V136C0 155.882 16.1177 172 36 172H220C239.882 172 256 155.882 256 136V120C256 100.118 239.882 84 220 84H36Z" fill="#A855F7"/>
    
    <!-- Connection dots -->
    <circle cx="128" cy="128" r="24" fill="white"/>
    <circle cx="48" cy="48" r="16" fill="white"/>
    <circle cx="208" cy="48" r="16" fill="white"/>
    <circle cx="48" cy="208" r="16" fill="white"/>
    <circle cx="208" cy="208" r="16" fill="white"/>
    
    <!-- Connection lines -->
    <line x1="60" y1="60" x2="116" y2="116" stroke="white" stroke-width="8"/>
    <line x1="196" y1="60" x2="140" y2="116" stroke="white" stroke-width="8"/>
    <line x1="60" y1="196" x2="116" y2="140" stroke="white" stroke-width="8"/>
    <line x1="196" y1="196" x2="140" y2="140" stroke="white" stroke-width="8"/>
  </g>
  
  <!-- Gradient definition -->
  <defs>
    <linearGradient id="paint0_linear" x1="0" y1="0" x2="512" y2="512" gradientUnits="userSpaceOnUse">
      <stop stop-color="#7E22CE"/>
      <stop offset="1" stop-color="#4C1D95"/>
    </linearGradient>
  </defs>
</svg>